<svg width="26" height="26" viewBox="0 0 26 26" fill="none" xmlns="http://www.w3.org/2000/svg">
<path d="M25.9998 13.2921C25.9998 12.4363 25.9223 11.6238 25.7895 10.833H13.2822V15.7188H20.4435C20.1225 17.3221 19.1817 18.6762 17.7871 19.5971V22.847H22.0595C24.5609 20.5829 25.9998 17.2463 25.9998 13.2921Z" fill="#4285F4"/>
<path d="M13.2825 26C16.8687 26 19.8682 24.83 22.0597 22.8475L17.7873 19.5976C16.5919 20.3776 15.0756 20.8542 13.2825 20.8542C9.81808 20.8542 6.88495 18.5684 5.83345 15.481H1.42822V18.8284C3.6087 23.075 8.09141 26 13.2825 26Z" fill="#34A853"/>
<path d="M5.83305 15.4805C5.55634 14.7005 5.41245 13.8663 5.41245 12.9996C5.41245 12.133 5.56741 11.2988 5.83305 10.5188V7.17139H1.42782C0.520214 8.92637 0 10.898 0 12.9996C0 15.1013 0.520214 17.0729 1.42782 18.8279L5.83305 15.4805Z" fill="#FBBC05"/>
<path d="M13.2825 5.14577C15.2416 5.14577 16.9904 5.8066 18.374 7.09575L22.1594 3.39079C19.8682 1.28915 16.8687 0 13.2825 0C8.09141 0 3.6087 2.92497 1.42822 7.17159L5.83345 10.519C6.88495 7.43158 9.81808 5.14577 13.2825 5.14577Z" fill="#EA4335"/>
</svg>
