<svg width="300" height="70" viewBox="0 0 300 70" fill="none" xmlns="http://www.w3.org/2000/svg">
<g filter="url(#filter0_b_1_2613)">
<rect width="300" height="70" rx="16" fill="white" fill-opacity="0.8"/>
</g>
<g opacity="0.25" filter="url(#filter1_b_1_2613)">
<rect x="98" y="57" width="104" height="3" rx="1.5" fill="#0B0B0B"/>
</g>
<path d="M56.5859 24.9688C56.6484 24.9375 56.7109 24.9219 56.7734 24.9219C56.8359 24.9219 56.8984 24.9375 56.9609 24.9688L61.2734 28.5312V32.375C61.2734 32.4844 61.2344 32.5703 61.1562 32.6328C61.0938 32.7109 61.0078 32.75 60.8984 32.75H58.2734C58.1641 32.75 58.0703 32.7109 57.9922 32.6328C57.9297 32.5547 57.8984 32.4688 57.8984 32.375V30.125C57.8984 30.0156 57.8594 29.9297 57.7812 29.8672C57.7188 29.7891 57.6328 29.75 57.5234 29.75H56.0234C55.9141 29.75 55.8203 29.7891 55.7422 29.8672C55.6797 29.9297 55.6484 30.0156 55.6484 30.125V32.375C55.6484 32.4688 55.6094 32.5547 55.5312 32.6328C55.4688 32.7109 55.3828 32.75 55.2734 32.75H52.6484C52.5391 32.75 52.4453 32.7109 52.3672 32.6328C52.3047 32.5703 52.2734 32.4844 52.2734 32.375V28.5312L56.5859 24.9688ZM63.4297 27.3828C63.4922 27.4453 63.5234 27.5234 63.5234 27.6172C63.5234 27.6797 63.5 27.7344 63.4531 27.7812L62.8672 28.5078C62.8047 28.5859 62.7344 28.625 62.6562 28.625C62.5781 28.625 62.5156 28.6016 62.4688 28.5547L56.9609 24.0078C56.8984 23.9766 56.8359 23.9609 56.7734 23.9609C56.7109 23.9609 56.6484 23.9766 56.5859 24.0078L51.0781 28.5547C51.0312 28.6016 50.9766 28.625 50.9141 28.625C50.8203 28.625 50.7422 28.5859 50.6797 28.5078L50.0938 27.7812C50.0469 27.7344 50.0234 27.6797 50.0234 27.6172C50.0234 27.5234 50.0547 27.4453 50.1172 27.3828L56.0469 22.5078C56.2656 22.3359 56.5078 22.25 56.7734 22.25C57.0391 22.25 57.2734 22.3359 57.4766 22.5078L59.5859 24.2422V22.5312C59.5859 22.4531 59.6094 22.3906 59.6562 22.3438C59.7188 22.2812 59.7891 22.25 59.8672 22.25H61.1797C61.2578 22.25 61.3203 22.2812 61.3672 22.3438C61.4297 22.3906 61.4609 22.4531 61.4609 22.5312V25.7891L63.4297 27.3828Z" fill="#EB225F"/>
<path d="M112 27.4062V22.625C112 22.3125 112.109 22.0469 112.328 21.8281C112.547 21.6094 112.812 21.5 113.125 21.5H117.906C118.219 21.5 118.484 21.6094 118.703 21.8281L123.672 26.7969C123.891 27.0156 124 27.2812 124 27.5938C124 27.9062 123.891 28.1719 123.672 28.3906L118.891 33.1719C118.672 33.3906 118.406 33.5 118.094 33.5C117.781 33.5 117.516 33.3906 117.297 33.1719L112.328 28.2031C112.109 27.9844 112 27.7188 112 27.4062ZM115.422 23.3281C115.203 23.1094 114.938 23 114.625 23C114.312 23 114.047 23.1094 113.828 23.3281C113.609 23.5469 113.5 23.8125 113.5 24.125C113.5 24.4375 113.609 24.7031 113.828 24.9219C114.047 25.1406 114.312 25.25 114.625 25.25C114.938 25.25 115.203 25.1406 115.422 24.9219C115.641 24.7031 115.75 24.4375 115.75 24.125C115.75 23.8125 115.641 23.5469 115.422 23.3281Z" fill="#0B0B0B" fill-opacity="0.5"/>
<path d="M182.359 26.6328C181.781 27.2109 181.078 27.5 180.25 27.5C179.422 27.5 178.711 27.2109 178.117 26.6328C177.539 26.0391 177.25 25.3281 177.25 24.5C177.25 23.6719 177.539 22.9688 178.117 22.3906C178.711 21.7969 179.422 21.5 180.25 21.5C181.078 21.5 181.781 21.7969 182.359 22.3906C182.953 22.9688 183.25 23.6719 183.25 24.5C183.25 25.3281 182.953 26.0391 182.359 26.6328ZM182.359 28.25C183.219 28.25 183.953 28.5625 184.562 29.1875C185.188 29.7969 185.5 30.5312 185.5 31.3906V32.375C185.5 32.6875 185.391 32.9531 185.172 33.1719C184.953 33.3906 184.688 33.5 184.375 33.5H176.125C175.812 33.5 175.547 33.3906 175.328 33.1719C175.109 32.9531 175 32.6875 175 32.375V31.3906C175 30.5312 175.305 29.7969 175.914 29.1875C176.539 28.5625 177.281 28.25 178.141 28.25H178.539C179.086 28.5 179.656 28.625 180.25 28.625C180.844 28.625 181.414 28.5 181.961 28.25H182.359Z" fill="#0B0B0B" fill-opacity="0.5"/>
<path d="M248.414 28.9062C248.555 28.9688 248.602 29.0781 248.555 29.2344C248.289 30.0625 247.859 30.7969 247.266 31.4375C247.172 31.5469 247.062 31.5703 246.938 31.5078L245.93 30.9219C245.508 31.2812 245.031 31.5547 244.5 31.7422V32.8906C244.5 33.0469 244.43 33.1406 244.289 33.1719C243.43 33.3594 242.578 33.3594 241.734 33.1719C241.578 33.1406 241.5 33.0469 241.5 32.8906V31.7422C240.969 31.5547 240.492 31.2812 240.07 30.9219L239.086 31.5078C238.945 31.5703 238.828 31.5469 238.734 31.4375C238.141 30.7969 237.711 30.0625 237.445 29.2344C237.398 29.0938 237.445 28.9844 237.586 28.9062L238.57 28.3203C238.523 28.0547 238.5 27.7812 238.5 27.5C238.5 27.2188 238.523 26.9453 238.57 26.6797L237.586 26.0938C237.445 26.0312 237.398 25.9219 237.445 25.7656C237.711 24.9375 238.141 24.2031 238.734 23.5625C238.828 23.4531 238.945 23.4375 239.086 23.5156L240.07 24.0781C240.492 23.7188 240.969 23.4453 241.5 23.2578V22.1094C241.5 21.9531 241.57 21.8594 241.711 21.8281C242.57 21.6406 243.43 21.6406 244.289 21.8281C244.43 21.8594 244.5 21.9531 244.5 22.1094V23.2578C245.031 23.4453 245.508 23.7188 245.93 24.0781L246.914 23.4922C247.055 23.4297 247.172 23.4531 247.266 23.5625C247.859 24.2031 248.289 24.9375 248.555 25.7656C248.602 25.9219 248.555 26.0312 248.414 26.0938L247.43 26.6797C247.523 27.2266 247.523 27.7734 247.43 28.3203L248.414 28.9062ZM241.664 28.8359C242.039 29.1953 242.484 29.375 243 29.375C243.516 29.375 243.953 29.1953 244.312 28.8359C244.688 28.4609 244.875 28.0156 244.875 27.5C244.875 26.9844 244.688 26.5469 244.312 26.1875C243.953 25.8125 243.516 25.625 243 25.625C242.484 25.625 242.039 25.8125 241.664 26.1875C241.305 26.5469 241.125 26.9844 241.125 27.5C241.125 28.0156 241.305 28.4609 241.664 28.8359Z" fill="#0B0B0B" fill-opacity="0.5"/>
<defs>
<filter id="filter0_b_1_2613" x="-6" y="-6" width="312" height="82" filterUnits="userSpaceOnUse" color-interpolation-filters="sRGB">
<feFlood flood-opacity="0" result="BackgroundImageFix"/>
<feGaussianBlur in="BackgroundImageFix" stdDeviation="3"/>
<feComposite in2="SourceAlpha" operator="in" result="effect1_backgroundBlur_1_2613"/>
<feBlend mode="normal" in="SourceGraphic" in2="effect1_backgroundBlur_1_2613" result="shape"/>
</filter>
<filter id="filter1_b_1_2613" x="92" y="51" width="116" height="15" filterUnits="userSpaceOnUse" color-interpolation-filters="sRGB">
<feFlood flood-opacity="0" result="BackgroundImageFix"/>
<feGaussianBlur in="BackgroundImageFix" stdDeviation="3"/>
<feComposite in2="SourceAlpha" operator="in" result="effect1_backgroundBlur_1_2613"/>
<feBlend mode="normal" in="SourceGraphic" in2="effect1_backgroundBlur_1_2613" result="shape"/>
</filter>
</defs>
</svg>
