<svg width="166" height="70" viewBox="0 0 166 70" fill="none" xmlns="http://www.w3.org/2000/svg">
<g clip-path="url(#clip0_119_5525)">
<path d="M76.7008 0C61.9829 0 50.0171 11.906 49.8974 26.6239H56.1795C56.2393 15.3761 65.453 6.28205 76.7008 6.28205C87.9487 6.28205 97.1025 15.3761 97.2222 26.6239H103.504C103.385 11.906 91.4188 0 76.7008 0Z" fill="#EB225F"/>
<path d="M76.7008 7.06006C65.8718 7.06006 57.0769 15.7951 57.0171 26.6242H63.2991C63.359 19.2652 69.3419 13.3421 76.7008 13.3421C84.0598 13.3421 90.0427 19.2652 90.1026 26.6242H96.3846C96.3248 15.7951 87.5299 7.06006 76.7008 7.06006Z" fill="#F7BB09"/>
<path d="M76.7008 14.0601C69.7008 14.0601 64.0769 19.684 64.0171 26.6242H70.2991C70.359 23.1541 73.2308 20.3421 76.7607 20.3421C80.2308 20.3421 83.1026 23.1541 83.2222 26.6242H89.5043C89.3248 19.684 83.641 14.0601 76.7008 14.0601Z" fill="#8CC442"/>
<path d="M82.3248 26.6239H71.0171C71.0769 23.5726 73.5897 21.1196 76.641 21.1196C79.7521 21.1196 82.265 23.5726 82.3248 26.6239Z" fill="#28A6F4"/>
<path d="M56.5384 37.3335L54.9829 38.889C54.7436 39.1283 54.3846 39.1283 54.1453 38.889L47.7436 32.5471C47.5043 32.3078 47.5043 31.9488 47.7436 31.7095L51.9316 27.5215H56.7778L52.5897 31.7095C52.3504 31.9488 52.3504 32.3078 52.5897 32.5471L56.5384 36.4958C56.7778 36.7352 56.7778 37.0941 56.5384 37.3335Z" fill="#0B0B0B"/>
<path d="M63.8974 37.3335L62.3418 38.889C62.1025 39.1283 61.7436 39.1283 61.5042 38.889L55.1025 32.5471C54.8632 32.3078 54.8632 31.9488 55.1025 31.7095L59.2906 27.5215H64.1367L59.9487 31.7095C59.7094 31.9488 59.7094 32.3078 59.9487 32.5471L63.8974 36.4958C64.1367 36.7352 64.1367 37.0941 63.8974 37.3335Z" fill="#0B0B0B"/>
<path d="M75.5043 37.3335L73.9487 38.889C73.7094 39.1283 73.3504 39.1283 73.1111 38.889L66.7692 32.5471C66.5299 32.3078 66.5299 31.9488 66.7692 31.7095L70.9572 27.5215H75.8034L71.6154 31.7095C71.376 31.9488 71.376 32.3078 71.6154 32.5471L75.5641 36.4958C75.7436 36.7352 75.7436 37.0941 75.5043 37.3335Z" fill="#0B0B0B"/>
<path d="M82.8633 37.3335L81.3077 38.889C81.0684 39.1283 80.7094 39.1283 80.4701 38.889L74.1282 32.5471C73.8889 32.3078 73.8889 31.9488 74.1282 31.7095L78.3162 27.5215H83.1624L78.9744 31.7095C78.7351 31.9488 78.7351 32.3078 78.9744 32.5471L82.9231 36.4958C83.0428 36.7352 83.0427 37.0941 82.8633 37.3335Z" fill="#0B0B0B"/>
<path d="M96.3248 37.3335L94.7692 38.889C94.5299 39.1283 94.1709 39.1283 93.9316 38.889L87.5897 32.5471C87.3504 32.3078 87.3504 31.9488 87.5897 31.7095L91.7777 27.5215H96.6239L92.4359 31.7095C92.1965 31.9488 92.1965 32.3078 92.4359 32.5471L96.3248 36.4958C96.5641 36.7352 96.5641 37.0941 96.3248 37.3335Z" fill="#0B0B0B"/>
<path d="M103.684 37.3335L102.128 38.889C101.889 39.1283 101.53 39.1283 101.291 38.889L94.9487 32.5471C94.7094 32.3078 94.7094 31.9488 94.9487 31.7095L99.1367 27.5215H103.983L99.7949 31.7095C99.5556 31.9488 99.5556 32.3078 99.7949 32.5471L103.744 36.4958C103.923 36.7352 103.923 37.0941 103.684 37.3335Z" fill="#0B0B0B"/>
<path d="M118.043 13.282C118.043 13.4017 117.983 13.4615 117.983 13.5811C117.085 18.0683 114.154 20.9401 112.479 22.1965C112.838 23.094 113.077 24.1111 113.077 25.188C113.077 25.6666 113.017 26.1452 112.957 26.6239H105.179C105.179 23.3333 104.521 20.1623 103.444 17.2307C103.923 17.1111 104.461 17.0512 104.94 17.0512C107.273 17.0512 109.367 18.0683 110.863 19.6239C112.179 18.547 114.214 16.3931 114.932 13.2222H118.043V13.282Z" fill="#0B0B0B"/>
<path d="M35.1196 49.5386V64.5557H32.1282V49.5386H35.1196Z" fill="#0B0B0B"/>
<path d="M47.6239 53.7864C48.5213 54.6839 48.9401 55.9403 48.9401 57.5557V64.5557H45.9487V57.9745C45.9487 57.0172 45.7094 56.2993 45.2307 55.7608C44.7521 55.2223 44.094 54.983 43.3162 54.983C42.4786 54.983 41.8205 55.2223 41.3418 55.7608C40.8632 56.2993 40.6239 57.0172 40.6239 57.9745V64.5557H37.6324V52.6497H40.6239V54.1454C41.0427 53.6069 41.5213 53.248 42.1795 52.9488C42.7777 52.6497 43.4957 52.53 44.2136 52.53C45.5897 52.4702 46.7863 52.889 47.6239 53.7864Z" fill="#0B0B0B"/>
<path d="M56.7778 55.1027H54.6838V64.5557H51.6325V55.1027H50.2564V52.6497H51.6325V52.0514C51.6325 50.6155 52.0513 49.5386 52.8889 48.8207C53.7265 48.1027 54.9829 47.8036 56.6581 47.8634V50.3762C55.9402 50.3762 55.4017 50.4959 55.1026 50.7352C54.8034 50.9745 54.6838 51.4531 54.6838 52.1113V52.6497H56.7778V55.1027Z" fill="#0B0B0B"/>
<path d="M61.265 48.6411V64.5556H58.2735V48.6411H61.265Z" fill="#0B0B0B"/>
<path d="M75.0256 52.6499V64.5559H71.9743V63.0602C71.6153 63.5986 71.0769 63.9576 70.4786 64.2567C69.8803 64.5559 69.1623 64.6755 68.4444 64.6755C67.4871 64.6755 66.7094 64.4961 65.9914 64.0773C65.2735 63.6584 64.735 63.12 64.3162 62.3422C63.8974 61.5644 63.7179 60.667 63.7179 59.5901V52.6499H66.7093V59.2311C66.7093 60.1884 66.9487 60.9063 67.4273 61.4448C67.9059 61.9832 68.5641 62.2226 69.3418 62.2226C70.1794 62.2226 70.8376 61.9832 71.3162 61.4448C71.7948 60.9063 72.0341 60.1884 72.0341 59.2311V52.6499H75.0256Z" fill="#0B0B0B"/>
<path d="M88.4871 59.53H79.7521C79.8119 60.3677 80.1111 61.0856 80.6495 61.5642C81.188 62.0429 81.8461 62.2822 82.6239 62.2822C83.7606 62.2822 84.5384 61.8035 85.0171 60.8463H88.2478C87.8889 61.983 87.2307 62.9403 86.2735 63.6583C85.3162 64.3762 84.1196 64.795 82.6837 64.795C81.547 64.795 80.5299 64.5557 79.5726 64.0172C78.6752 63.4788 77.9572 62.7608 77.4188 61.8634C76.8803 60.9061 76.641 59.8292 76.641 58.6326C76.641 57.3762 76.8803 56.2993 77.4188 55.4018C77.8974 54.4446 78.6153 53.7266 79.5128 53.248C80.4102 52.7694 81.4871 52.4702 82.6239 52.4702C83.7606 52.4702 84.7777 52.7095 85.6752 53.1882C86.5726 53.6668 87.2906 54.3847 87.7692 55.2822C88.2478 56.1796 88.4871 57.1967 88.4871 58.3933C88.6068 58.7523 88.547 59.1711 88.4871 59.53ZM85.4359 57.4959C85.4359 56.7181 85.1367 56.1198 84.5982 55.6412C84.0598 55.1625 83.4017 54.9232 82.6239 54.9232C81.9059 54.9232 81.2478 55.1625 80.7692 55.5813C80.2307 56.06 79.9316 56.6583 79.8119 57.4959H85.4359Z" fill="#0B0B0B"/>
<path d="M100.333 53.7864C101.231 54.6839 101.65 55.9403 101.65 57.5557V64.5557H98.6581V57.9745C98.6581 57.0172 98.4188 56.2993 97.9401 55.7608C97.4615 55.2223 96.8034 54.983 96.0256 54.983C95.188 54.983 94.5299 55.2223 94.0513 55.7608C93.5726 56.2993 93.3333 57.0172 93.3333 57.9745V64.5557H90.3419V52.6497H93.3333V54.1454C93.7521 53.6069 94.2308 53.248 94.8889 52.9488C95.4872 52.6497 96.2051 52.53 96.9231 52.53C98.2991 52.4702 99.4957 52.889 100.333 53.7864Z" fill="#0B0B0B"/>
<path d="M103.983 55.3423C104.461 54.4448 105.179 53.7269 106.077 53.1884C106.974 52.65 107.991 52.4106 109.128 52.4106C110.624 52.4106 111.82 52.7696 112.778 53.5474C113.735 54.2653 114.393 55.3423 114.752 56.6585H111.521C111.342 56.12 111.043 55.7611 110.624 55.4619C110.205 55.1628 109.726 55.0431 109.128 55.0431C108.291 55.0431 107.573 55.3423 107.094 56.0004C106.615 56.5987 106.316 57.4961 106.316 58.6329C106.316 59.7696 106.556 60.6671 107.094 61.2653C107.573 61.8636 108.291 62.2226 109.128 62.2226C110.325 62.2226 111.162 61.6842 111.521 60.6072H114.752C114.393 61.9235 113.795 62.9406 112.778 63.6585C111.82 64.4363 110.564 64.7953 109.128 64.7953C107.991 64.7953 106.974 64.5559 106.077 64.0175C105.179 63.479 104.461 62.7611 103.983 61.8636C103.504 60.9662 103.205 59.8294 103.205 58.6329C103.205 57.4363 103.504 56.2995 103.983 55.3423Z" fill="#0B0B0B"/>
<path d="M127.496 59.53H118.761C118.82 60.3677 119.12 61.0856 119.658 61.5642C120.197 62.0429 120.855 62.2822 121.632 62.2822C122.769 62.2822 123.547 61.8035 124.026 60.8463H127.256C126.897 61.983 126.239 62.9403 125.282 63.6583C124.325 64.3762 123.128 64.795 121.692 64.795C120.556 64.795 119.538 64.5557 118.581 64.0172C117.684 63.4788 116.966 62.7608 116.427 61.8634C115.889 60.9061 115.65 59.8292 115.65 58.6326C115.65 57.3762 115.889 56.2993 116.427 55.4018C116.906 54.4446 117.624 53.7266 118.521 53.248C119.419 52.7694 120.496 52.4702 121.632 52.4702C122.769 52.4702 123.786 52.7095 124.684 53.1882C125.581 53.6668 126.299 54.3847 126.778 55.2822C127.256 56.1796 127.496 57.1967 127.496 58.3933C127.615 58.7523 127.556 59.1711 127.496 59.53ZM124.444 57.4959C124.444 56.7181 124.145 56.1198 123.607 55.6412C123.068 55.1625 122.41 54.9232 121.632 54.9232C120.914 54.9232 120.256 55.1625 119.778 55.5813C119.239 56.06 118.94 56.6583 118.82 57.4959H124.444Z" fill="#0B0B0B"/>
<path d="M133.838 53.0087C134.436 52.6497 135.154 52.4702 135.991 52.4702V55.6412H135.214C134.256 55.6412 133.538 55.8805 133.06 56.2993C132.581 56.7181 132.342 57.4959 132.342 58.6326V64.5557H129.35V52.6497H132.342V54.5044C132.701 53.8463 133.179 53.3677 133.838 53.0087Z" fill="#0B0B0B"/>
<path d="M148.436 61.6838H142.573L141.616 64.4958H138.504L143.769 49.7778H147.18L152.445 64.4958H149.333L148.436 61.6838ZM147.598 59.3505L145.445 53.1881L143.291 59.3505H147.598Z" fill="#8CC442"/>
<path d="M154 55.4616C154.479 54.5641 155.137 53.8462 155.915 53.3676C156.752 52.8889 157.65 52.6496 158.607 52.6496C159.385 52.6496 160.103 52.8291 160.761 53.1282C161.479 53.4872 162.017 53.906 162.376 54.4445V48.8804H165.368V64.4958H162.376V62.7607C162.017 63.359 161.479 63.7778 160.821 64.1368C160.163 64.4958 159.385 64.6752 158.547 64.6752C157.59 64.6752 156.692 64.4359 155.855 63.8975C155.017 63.4188 154.419 62.7009 153.94 61.7436C153.462 60.8462 153.222 59.7693 153.222 58.5727C153.342 57.4359 153.581 56.359 154 55.4616ZM162.077 56.7778C161.778 56.2393 161.419 55.8804 160.94 55.5812C160.462 55.2821 159.923 55.1624 159.385 55.1624C158.846 55.1624 158.308 55.2821 157.889 55.5812C157.41 55.8205 157.051 56.2393 156.752 56.7778C156.453 57.3163 156.333 57.9146 156.333 58.5727C156.333 59.2906 156.453 59.8889 156.752 60.4274C157.051 60.9658 157.41 61.3846 157.889 61.624C158.368 61.9231 158.846 62.0428 159.385 62.0428C159.923 62.0428 160.462 61.9231 160.94 61.624C161.419 61.3248 161.778 60.9658 162.077 60.4274C162.376 59.8889 162.496 59.2906 162.496 58.5727C162.496 57.8547 162.376 57.3163 162.077 56.7778Z" fill="#28A6F4"/>
<path d="M16.0342 49.7778V64.4958H13.1026V54.9231L9.15385 64.4958H6.94017L2.99145 54.9231V64.4958H0V49.7778H3.35043L8.01709 60.7266L12.6838 49.7778H16.0342Z" fill="#EB225F"/>
<path d="M29.7351 52.8291L22.4957 70H19.3248L21.8376 64.1966L17.171 52.8291H20.4616L23.453 60.9659L26.5043 52.8291H29.7351Z" fill="#F7BB09"/>
</g>
<defs>
<clipPath id="clip0_119_5525">
<rect width="165.487" height="70" fill="white"/>
</clipPath>
</defs>
</svg>
