<svg width="268" height="114" viewBox="0 0 268 114" fill="none" xmlns="http://www.w3.org/2000/svg">
<g clip-path="url(#clip0_136_393)">
<path d="M124.214 0C100.379 0 81.0007 19.3897 80.8069 43.359H90.9804C91.0773 25.041 105.998 10.2308 124.214 10.2308C142.429 10.2308 157.254 25.041 157.448 43.359H167.621C167.427 19.3897 148.049 0 124.214 0Z" fill="#EB225F"/>
<path d="M124.214 11.4976C106.677 11.4976 92.4338 25.7232 92.3369 43.3591H102.51C102.607 31.3745 112.296 21.7283 124.214 21.7283C136.132 21.7283 145.821 31.3745 145.918 43.3591H156.091C155.994 25.7232 141.751 11.4976 124.214 11.4976Z" fill="#F7BB09"/>
<path d="M124.214 22.8975C112.878 22.8975 103.77 32.0564 103.673 43.359H113.847C113.944 37.7077 118.594 33.1282 124.311 33.1282C129.931 33.1282 134.581 37.7077 134.775 43.359H144.949C144.658 32.0564 135.453 22.8975 124.214 22.8975Z" fill="#8CC442"/>
<path d="M133.322 43.3591H115.009C115.106 38.3899 119.176 34.395 124.117 34.395C129.155 34.395 133.225 38.3899 133.322 43.3591Z" fill="#28A6F4"/>
<path d="M91.5617 60.7998L89.0425 63.3331C88.655 63.7229 88.0736 63.7229 87.6861 63.3331L77.3187 53.0049C76.9312 52.6152 76.9312 52.0306 77.3187 51.6408L84.1011 44.8203H91.9493L85.1669 51.6408C84.7793 52.0306 84.7793 52.6152 85.1669 53.0049L91.5617 59.4357C91.9493 59.8254 91.9493 60.4101 91.5617 60.7998Z" fill="white"/>
<path d="M103.479 60.7998L100.96 63.3331C100.572 63.7229 99.9911 63.7229 99.6036 63.3331L89.2362 53.0049C88.8487 52.6152 88.8487 52.0306 89.2362 51.6408L96.0186 44.8203H103.867L97.0844 51.6408C96.6968 52.0306 96.6968 52.6152 97.0844 53.0049L103.479 59.4357C103.867 59.8254 103.867 60.4101 103.479 60.7998Z" fill="white"/>
<path d="M122.276 60.7998L119.757 63.3331C119.369 63.7229 118.788 63.7229 118.4 63.3331L108.13 53.0049C107.742 52.6152 107.742 52.0306 108.13 51.6408L114.912 44.8203H122.761L115.978 51.6408C115.591 52.0306 115.591 52.6152 115.978 53.0049L122.373 59.4357C122.664 59.8254 122.664 60.4101 122.276 60.7998Z" fill="white"/>
<path d="M134.194 60.7998L131.674 63.3331C131.287 63.7229 130.705 63.7229 130.318 63.3331L120.048 53.0049C119.66 52.6152 119.66 52.0306 120.048 51.6408L126.83 44.8203H134.678L127.896 51.6408C127.508 52.0306 127.508 52.6152 127.896 53.0049L134.29 59.4357C134.484 59.8254 134.484 60.4101 134.194 60.7998Z" fill="white"/>
<path d="M155.994 60.7998L153.475 63.3331C153.087 63.7229 152.506 63.7229 152.118 63.3331L141.848 53.0049C141.46 52.6152 141.46 52.0306 141.848 51.6408L148.63 44.8203H156.479L149.696 51.6408C149.309 52.0306 149.309 52.6152 149.696 53.0049L155.994 59.4357C156.382 59.8254 156.382 60.4101 155.994 60.7998Z" fill="white"/>
<path d="M167.912 60.7998L165.392 63.3331C165.005 63.7229 164.424 63.7229 164.036 63.3331L153.766 53.0049C153.378 52.6152 153.378 52.0306 153.766 51.6408L160.548 44.8203H168.396L161.614 51.6408C161.226 52.0306 161.226 52.6152 161.614 53.0049L168.008 59.4357C168.299 59.8254 168.299 60.4101 167.912 60.7998Z" fill="white"/>
<path d="M191.166 21.6306C191.166 21.8255 191.069 21.9229 191.069 22.1178C189.615 29.4255 184.868 34.1024 182.155 36.1486C182.736 37.6101 183.124 39.2665 183.124 41.0204C183.124 41.7999 183.027 42.5794 182.93 43.3588H170.334C170.334 37.9999 169.268 32.8358 167.524 28.0614C168.299 27.8665 169.171 27.7691 169.946 27.7691C173.725 27.7691 177.116 29.4255 179.539 31.9588C181.67 30.205 184.965 26.6973 186.127 21.5332H191.166V21.6306Z" fill="white"/>
<path d="M56.8748 80.6768V105.133H52.0303V80.6768H56.8748Z" fill="white"/>
<path d="M77.1251 87.5948C78.5785 89.0564 79.2567 91.1025 79.2567 93.7333V105.133H74.4122V94.4153C74.4122 92.8564 74.0246 91.6871 73.2495 90.8102C72.4743 89.9333 71.4085 89.5436 70.149 89.5436C68.7925 89.5436 67.7267 89.9333 66.9516 90.8102C66.1764 91.6871 65.7889 92.8564 65.7889 94.4153V105.133H60.9443V85.7436H65.7889V88.1795C66.4671 87.3025 67.2422 86.7179 68.308 86.2307C69.2769 85.7436 70.4396 85.5487 71.6023 85.5487C73.8308 85.4512 75.7686 86.1333 77.1251 87.5948Z" fill="white"/>
<path d="M91.9493 89.7384H88.5581V105.133H83.6167V89.7384H81.3882V85.7435H83.6167V84.7692C83.6167 82.4307 84.2949 80.6769 85.6514 79.5076C87.0079 78.3384 89.0426 77.8512 91.7555 77.9486V82.041C90.5928 82.041 89.7208 82.2358 89.2363 82.6256C88.7519 83.0153 88.5581 83.7948 88.5581 84.8666V85.7435H91.9493V89.7384Z" fill="white"/>
<path d="M99.2161 79.2153V105.133H94.3716V79.2153H99.2161Z" fill="white"/>
<path d="M121.501 85.7437V105.133H116.56V102.698C115.978 103.574 115.106 104.159 114.137 104.646C113.168 105.133 112.006 105.328 110.843 105.328C109.293 105.328 108.033 105.036 106.871 104.354C105.708 103.672 104.836 102.795 104.158 101.528C103.479 100.262 103.189 98.8001 103.189 97.0462V85.7437H108.033V96.4616C108.033 98.0206 108.421 99.1898 109.196 100.067C109.971 100.944 111.037 101.333 112.296 101.333C113.653 101.333 114.719 100.944 115.494 100.067C116.269 99.1898 116.657 98.0206 116.657 96.4616V85.7437H121.501Z" fill="white"/>
<path d="M143.301 96.9486H129.155C129.252 98.3127 129.737 99.4819 130.609 100.261C131.481 101.041 132.546 101.431 133.806 101.431C135.647 101.431 136.907 100.651 137.682 99.0922H142.914C142.332 100.943 141.267 102.502 139.716 103.672C138.166 104.841 136.228 105.523 133.903 105.523C132.062 105.523 130.415 105.133 128.865 104.256C127.411 103.379 126.249 102.21 125.377 100.749C124.504 99.1896 124.117 97.4358 124.117 95.4871C124.117 93.4409 124.504 91.6871 125.377 90.2255C126.152 88.6666 127.314 87.4973 128.768 86.7178C130.221 85.9384 131.965 85.4512 133.806 85.4512C135.647 85.4512 137.294 85.8409 138.747 86.6204C140.201 87.3999 141.363 88.5691 142.139 90.0307C142.914 91.4922 143.301 93.1486 143.301 95.0973C143.495 95.6819 143.398 96.364 143.301 96.9486ZM138.36 93.6358C138.36 92.3691 137.875 91.3948 137.003 90.6153C136.131 89.8358 135.066 89.446 133.806 89.446C132.643 89.446 131.578 89.8358 130.802 90.5178C129.93 91.2973 129.446 92.2717 129.252 93.6358H138.36Z" fill="white"/>
<path d="M162.486 87.5948C163.939 89.0564 164.617 91.1025 164.617 93.7333V105.133H159.773V94.4153C159.773 92.8564 159.385 91.6871 158.61 90.8102C157.835 89.9333 156.769 89.5436 155.51 89.5436C154.153 89.5436 153.087 89.9333 152.312 90.8102C151.537 91.6871 151.149 92.8564 151.149 94.4153V105.133H146.305V85.7436H151.149V88.1795C151.828 87.3025 152.603 86.7179 153.669 86.2307C154.638 85.7436 155.8 85.5487 156.963 85.5487C159.191 85.4512 161.129 86.1333 162.486 87.5948Z" fill="white"/>
<path d="M168.396 90.1284C169.171 88.6668 170.334 87.4976 171.787 86.6207C173.241 85.7438 174.888 85.354 176.729 85.354C179.151 85.354 181.089 85.9386 182.639 87.2053C184.189 88.3745 185.255 90.1284 185.836 92.272H180.604C180.314 91.395 179.829 90.8104 179.151 90.3232C178.473 89.8361 177.698 89.6412 176.729 89.6412C175.372 89.6412 174.21 90.1284 173.434 91.2002C172.659 92.1745 172.175 93.6361 172.175 95.4873C172.175 97.3386 172.562 98.8002 173.434 99.7745C174.21 100.749 175.372 101.333 176.729 101.333C178.666 101.333 180.023 100.457 180.604 98.7027H185.836C185.255 100.846 184.286 102.503 182.639 103.672C181.089 104.939 179.054 105.523 176.729 105.523C174.888 105.523 173.241 105.133 171.787 104.257C170.334 103.38 169.171 102.21 168.396 100.749C167.621 99.2873 167.136 97.4361 167.136 95.4873C167.136 93.5386 167.621 91.6873 168.396 90.1284Z" fill="white"/>
<path d="M206.474 96.9486H192.328C192.425 98.3127 192.909 99.4819 193.781 100.261C194.653 101.041 195.719 101.431 196.979 101.431C198.82 101.431 200.079 100.651 200.855 99.0922H206.087C205.505 100.943 204.439 102.502 202.889 103.672C201.339 104.841 199.401 105.523 197.076 105.523C195.235 105.523 193.588 105.133 192.037 104.256C190.584 103.379 189.421 102.21 188.549 100.749C187.677 99.1896 187.29 97.4358 187.29 95.4871C187.29 93.4409 187.677 91.6871 188.549 90.2255C189.325 88.6666 190.487 87.4973 191.941 86.7178C193.394 85.9384 195.138 85.4512 196.979 85.4512C198.82 85.4512 200.467 85.8409 201.92 86.6204C203.374 87.3999 204.536 88.5691 205.311 90.0307C206.087 91.4922 206.474 93.1486 206.474 95.0973C206.668 95.6819 206.571 96.364 206.474 96.9486ZM201.533 93.6358C201.533 92.3691 201.048 91.3948 200.176 90.6153C199.304 89.8358 198.238 89.446 196.979 89.446C195.816 89.446 194.75 89.8358 193.975 90.5178C193.103 91.2973 192.619 92.2717 192.425 93.6358H201.533Z" fill="white"/>
<path d="M216.745 86.3281C217.714 85.7435 218.876 85.4512 220.233 85.4512V90.6153H218.973C217.423 90.6153 216.26 91.005 215.485 91.6871C214.71 92.3691 214.322 93.6358 214.322 95.4871V105.133H209.478V85.7435H214.322V88.764C214.904 87.6922 215.679 86.9127 216.745 86.3281Z" fill="white"/>
<path d="M240.386 100.456H230.891L229.341 105.036H224.302L232.829 81.0664H238.352L246.878 105.036H241.84L240.386 100.456ZM239.03 96.6562L235.542 86.6203L232.054 96.6562H239.03Z" fill="#8CC442"/>
<path d="M249.397 90.3229C250.172 88.8614 251.238 87.6922 252.498 86.9127C253.854 86.1332 255.308 85.7434 256.858 85.7434C258.117 85.7434 259.28 86.0358 260.346 86.5229C261.509 87.1076 262.381 87.7896 262.962 88.6665V79.605H267.807V105.036H262.962V102.21C262.381 103.184 261.509 103.867 260.443 104.451C259.377 105.036 258.117 105.328 256.761 105.328C255.211 105.328 253.757 104.938 252.401 104.061C251.044 103.282 250.075 102.113 249.3 100.554C248.525 99.0922 248.138 97.3383 248.138 95.3896C248.331 93.5383 248.719 91.7845 249.397 90.3229ZM262.478 92.4665C261.993 91.5896 261.412 91.005 260.637 90.5178C259.861 90.0306 258.989 89.8357 258.117 89.8357C257.245 89.8357 256.373 90.0306 255.695 90.5178C254.92 90.9075 254.339 91.5896 253.854 92.4665C253.37 93.3434 253.176 94.3178 253.176 95.3896C253.176 96.5588 253.37 97.5332 253.854 98.4101C254.339 99.287 254.92 99.9691 255.695 100.359C256.47 100.846 257.245 101.041 258.117 101.041C258.989 101.041 259.861 100.846 260.637 100.359C261.412 99.8717 261.993 99.287 262.478 98.4101C262.962 97.5332 263.156 96.5588 263.156 95.3896C263.156 94.2204 262.962 93.3434 262.478 92.4665Z" fill="#28A6F4"/>
<path d="M25.9667 81.0669V105.036H21.2191V89.4464L14.8243 105.036H11.2393L4.84454 89.4464V105.036H0V81.0669H5.42589L12.9834 98.8977L20.5409 81.0669H25.9667Z" fill="#EB225F"/>
<path d="M48.1547 86.0361L36.4309 114H31.2957L35.3651 104.549L27.8076 86.0361H33.1366L37.9812 99.2874L42.9226 86.0361H48.1547Z" fill="#F7BB09"/>
</g>
<defs>
<clipPath id="clip0_136_393">
<rect width="268" height="114" fill="white"/>
</clipPath>
</defs>
</svg>
