<svg width="160" height="66" viewBox="0 0 160 66" fill="none" xmlns="http://www.w3.org/2000/svg">
<g filter="url(#filter0_b_1_2580)">
<rect width="160" height="66" rx="20" fill="white" fill-opacity="0.8"/>
</g>
<g filter="url(#filter1_b_1_2580)">
<rect x="20" y="20" width="27" height="27" rx="6" fill="#0B0B0B"/>
</g>
<g filter="url(#filter2_b_1_2580)">
<rect x="28" y="28" width="11" height="3" rx="1.5" fill="#8CC442"/>
</g>
<g filter="url(#filter3_b_1_2580)">
<rect x="28" y="36" width="11" height="3" rx="1.5" fill="#8CC442"/>
</g>
<g filter="url(#filter4_b_1_2580)">
<rect x="29" y="32" width="11" height="3" rx="1.5" fill="#8CC442"/>
</g>
<path d="M61.432 21.864V19.32H65.864V31H63.016V21.864H61.432ZM67.7356 25C67.7356 23.1653 68.0876 21.72 68.7916 20.664C69.5063 19.608 70.653 19.08 72.2316 19.08C73.8103 19.08 74.9516 19.608 75.6556 20.664C76.3703 21.72 76.7276 23.1653 76.7276 25C76.7276 26.856 76.3703 28.312 75.6556 29.368C74.9516 30.424 73.8103 30.952 72.2316 30.952C70.653 30.952 69.5063 30.424 68.7916 29.368C68.0876 28.312 67.7356 26.856 67.7356 25ZM74.0396 25C74.0396 23.9227 73.9223 23.096 73.6876 22.52C73.453 21.9333 72.9676 21.64 72.2316 21.64C71.4956 21.64 71.0103 21.9333 70.7756 22.52C70.541 23.096 70.4236 23.9227 70.4236 25C70.4236 25.7253 70.4663 26.328 70.5516 26.808C70.637 27.2773 70.8076 27.6613 71.0636 27.96C71.3303 28.248 71.7196 28.392 72.2316 28.392C72.7436 28.392 73.1276 28.248 73.3836 27.96C73.6503 27.6613 73.8263 27.2773 73.9116 26.808C73.997 26.328 74.0396 25.7253 74.0396 25ZM83.9011 31L81.1811 27.256V31H78.4451V19.16H81.1811V25.704L83.8851 22.072H87.2611L83.5491 26.552L87.2931 31H83.9011ZM96.4478 26.632H93.6638V29.48H91.0718V26.632H88.2878V24.184H91.0718V21.32H93.6638V24.184H96.4478V26.632Z" fill="#0B0B0B"/>
<path opacity="0.5" d="M67.78 44.18C67.78 44.5533 67.69 44.9033 67.51 45.23C67.3367 45.5567 67.06 45.82 66.68 46.02C66.3067 46.22 65.8333 46.32 65.26 46.32H64.09V49H62.69V42.02H65.26C65.8 42.02 66.26 42.1133 66.64 42.3C67.02 42.4867 67.3033 42.7433 67.49 43.07C67.6833 43.3967 67.78 43.7667 67.78 44.18ZM65.2 45.19C65.5867 45.19 65.8733 45.1033 66.06 44.93C66.2467 44.75 66.34 44.5 66.34 44.18C66.34 43.5 65.96 43.16 65.2 43.16H64.09V45.19H65.2ZM74.004 43.46V49H72.594V48.3C72.414 48.54 72.1773 48.73 71.884 48.87C71.5973 49.0033 71.284 49.07 70.944 49.07C70.5107 49.07 70.1273 48.98 69.794 48.8C69.4607 48.6133 69.1973 48.3433 69.004 47.99C68.8173 47.63 68.724 47.2033 68.724 46.71V43.46H70.124V46.51C70.124 46.95 70.234 47.29 70.454 47.53C70.674 47.7633 70.974 47.88 71.354 47.88C71.7407 47.88 72.044 47.7633 72.264 47.53C72.484 47.29 72.594 46.95 72.594 46.51V43.46H74.004ZM76.7853 44.27C76.9653 44.0033 77.212 43.7867 77.5253 43.62C77.8453 43.4533 78.2086 43.37 78.6153 43.37C79.0886 43.37 79.5153 43.4867 79.8953 43.72C80.282 43.9533 80.5853 44.2867 80.8053 44.72C81.032 45.1467 81.1453 45.6433 81.1453 46.21C81.1453 46.7767 81.032 47.28 80.8053 47.72C80.5853 48.1533 80.282 48.49 79.8953 48.73C79.5153 48.97 79.0886 49.09 78.6153 49.09C78.202 49.09 77.8386 49.01 77.5253 48.85C77.2186 48.6833 76.972 48.47 76.7853 48.21V49H75.3853V41.6H76.7853V44.27ZM79.7153 46.21C79.7153 45.8767 79.6453 45.59 79.5053 45.35C79.372 45.1033 79.192 44.9167 78.9653 44.79C78.7453 44.6633 78.5053 44.6 78.2453 44.6C77.992 44.6 77.752 44.6667 77.5253 44.8C77.3053 44.9267 77.1253 45.1133 76.9853 45.36C76.852 45.6067 76.7853 45.8967 76.7853 46.23C76.7853 46.5633 76.852 46.8533 76.9853 47.1C77.1253 47.3467 77.3053 47.5367 77.5253 47.67C77.752 47.7967 77.992 47.86 78.2453 47.86C78.5053 47.86 78.7453 47.7933 78.9653 47.66C79.192 47.5267 79.372 47.3367 79.5053 47.09C79.6453 46.8433 79.7153 46.55 79.7153 46.21ZM83.5627 41.6V49H82.1627V41.6H83.5627ZM85.6559 42.8C85.4092 42.8 85.2025 42.7233 85.0359 42.57C84.8759 42.41 84.7959 42.2133 84.7959 41.98C84.7959 41.7467 84.8759 41.5533 85.0359 41.4C85.2025 41.24 85.4092 41.16 85.6559 41.16C85.9025 41.16 86.1059 41.24 86.2659 41.4C86.4325 41.5533 86.5159 41.7467 86.5159 41.98C86.5159 42.2133 86.4325 42.41 86.2659 42.57C86.1059 42.7233 85.9025 42.8 85.6559 42.8ZM86.3459 43.46V49H84.9459V43.46H86.3459ZM87.3691 46.23C87.3691 45.6567 87.4857 45.1567 87.7191 44.73C87.9524 44.2967 88.2757 43.9633 88.6891 43.73C89.1024 43.49 89.5757 43.37 90.1091 43.37C90.7957 43.37 91.3624 43.5433 91.8091 43.89C92.2624 44.23 92.5657 44.71 92.7191 45.33H91.2091C91.1291 45.09 90.9924 44.9033 90.7991 44.77C90.6124 44.63 90.3791 44.56 90.0991 44.56C89.6991 44.56 89.3824 44.7067 89.1491 45C88.9157 45.2867 88.7991 45.6967 88.7991 46.23C88.7991 46.7567 88.9157 47.1667 89.1491 47.46C89.3824 47.7467 89.6991 47.89 90.0991 47.89C90.6657 47.89 91.0357 47.6367 91.2091 47.13H92.7191C92.5657 47.73 92.2624 48.2067 91.8091 48.56C91.3557 48.9133 90.7891 49.09 90.1091 49.09C89.5757 49.09 89.1024 48.9733 88.6891 48.74C88.2757 48.5 87.9524 48.1667 87.7191 47.74C87.4857 47.3067 87.3691 46.8033 87.3691 46.23ZM93.3847 46.21C93.3847 45.65 93.4947 45.1533 93.7147 44.72C93.9414 44.2867 94.2447 43.9533 94.6247 43.72C95.0114 43.4867 95.4414 43.37 95.9147 43.37C96.328 43.37 96.688 43.4533 96.9947 43.62C97.308 43.7867 97.558 43.9967 97.7447 44.25V43.46H99.1547V49H97.7447V48.19C97.5647 48.45 97.3147 48.6667 96.9947 48.84C96.6814 49.0067 96.318 49.09 95.9047 49.09C95.438 49.09 95.0114 48.97 94.6247 48.73C94.2447 48.49 93.9414 48.1533 93.7147 47.72C93.4947 47.28 93.3847 46.7767 93.3847 46.21ZM97.7447 46.23C97.7447 45.89 97.678 45.6 97.5447 45.36C97.4114 45.1133 97.2314 44.9267 97.0047 44.8C96.778 44.6667 96.5347 44.6 96.2747 44.6C96.0147 44.6 95.7747 44.6633 95.5547 44.79C95.3347 44.9167 95.1547 45.1033 95.0147 45.35C94.8814 45.59 94.8147 45.8767 94.8147 46.21C94.8147 46.5433 94.8814 46.8367 95.0147 47.09C95.1547 47.3367 95.3347 47.5267 95.5547 47.66C95.7814 47.7933 96.0214 47.86 96.2747 47.86C96.5347 47.86 96.778 47.7967 97.0047 47.67C97.2314 47.5367 97.4114 47.35 97.5447 47.11C97.678 46.8633 97.7447 46.57 97.7447 46.23ZM102.152 44.61V47.29C102.152 47.4767 102.195 47.6133 102.282 47.7C102.375 47.78 102.529 47.82 102.742 47.82H103.392V49H102.512C101.332 49 100.742 48.4267 100.742 47.28V44.61H100.082V43.46H100.742V42.09H102.152V43.46H103.392V44.61H102.152ZM105.109 42.8C104.862 42.8 104.656 42.7233 104.489 42.57C104.329 42.41 104.249 42.2133 104.249 41.98C104.249 41.7467 104.329 41.5533 104.489 41.4C104.656 41.24 104.862 41.16 105.109 41.16C105.356 41.16 105.559 41.24 105.719 41.4C105.886 41.5533 105.969 41.7467 105.969 41.98C105.969 42.2133 105.886 42.41 105.719 42.57C105.559 42.7233 105.356 42.8 105.109 42.8ZM105.799 43.46V49H104.399V43.46H105.799ZM109.642 49.09C109.109 49.09 108.629 48.9733 108.202 48.74C107.776 48.5 107.439 48.1633 107.192 47.73C106.952 47.2967 106.832 46.7967 106.832 46.23C106.832 45.6633 106.956 45.1633 107.202 44.73C107.456 44.2967 107.799 43.9633 108.232 43.73C108.666 43.49 109.149 43.37 109.682 43.37C110.216 43.37 110.699 43.49 111.132 43.73C111.566 43.9633 111.906 44.2967 112.152 44.73C112.406 45.1633 112.532 45.6633 112.532 46.23C112.532 46.7967 112.402 47.2967 112.142 47.73C111.889 48.1633 111.542 48.5 111.102 48.74C110.669 48.9733 110.182 49.09 109.642 49.09ZM109.642 47.87C109.896 47.87 110.132 47.81 110.352 47.69C110.579 47.5633 110.759 47.3767 110.892 47.13C111.026 46.8833 111.092 46.5833 111.092 46.23C111.092 45.7033 110.952 45.3 110.672 45.02C110.399 44.7333 110.062 44.59 109.662 44.59C109.262 44.59 108.926 44.7333 108.652 45.02C108.386 45.3 108.252 45.7033 108.252 46.23C108.252 46.7567 108.382 47.1633 108.642 47.45C108.909 47.73 109.242 47.87 109.642 47.87ZM116.629 43.38C117.289 43.38 117.822 43.59 118.229 44.01C118.636 44.4233 118.839 45.0033 118.839 45.75V49H117.439V45.94C117.439 45.5 117.329 45.1633 117.109 44.93C116.889 44.69 116.589 44.57 116.209 44.57C115.822 44.57 115.516 44.69 115.289 44.93C115.069 45.1633 114.959 45.5 114.959 45.94V49H113.559V43.46H114.959V44.15C115.146 43.91 115.382 43.7233 115.669 43.59C115.962 43.45 116.282 43.38 116.629 43.38ZM122.29 49.09C121.837 49.09 121.43 49.01 121.07 48.85C120.71 48.6833 120.424 48.46 120.21 48.18C120.004 47.9 119.89 47.59 119.87 47.25H121.28C121.307 47.4633 121.41 47.64 121.59 47.78C121.777 47.92 122.007 47.99 122.28 47.99C122.547 47.99 122.754 47.9367 122.9 47.83C123.054 47.7233 123.13 47.5867 123.13 47.42C123.13 47.24 123.037 47.1067 122.85 47.02C122.67 46.9267 122.38 46.8267 121.98 46.72C121.567 46.62 121.227 46.5167 120.96 46.41C120.7 46.3033 120.474 46.14 120.28 45.92C120.094 45.7 120 45.4033 120 45.03C120 44.7233 120.087 44.4433 120.26 44.19C120.44 43.9367 120.694 43.7367 121.02 43.59C121.354 43.4433 121.744 43.37 122.19 43.37C122.85 43.37 123.377 43.5367 123.77 43.87C124.164 44.1967 124.38 44.64 124.42 45.2H123.08C123.06 44.98 122.967 44.8067 122.8 44.68C122.64 44.5467 122.424 44.48 122.15 44.48C121.897 44.48 121.7 44.5267 121.56 44.62C121.427 44.7133 121.36 44.8433 121.36 45.01C121.36 45.1967 121.454 45.34 121.64 45.44C121.827 45.5333 122.117 45.63 122.51 45.73C122.91 45.83 123.24 45.9333 123.5 46.04C123.76 46.1467 123.984 46.3133 124.17 46.54C124.364 46.76 124.464 47.0533 124.47 47.42C124.47 47.74 124.38 48.0267 124.2 48.28C124.027 48.5333 123.774 48.7333 123.44 48.88C123.114 49.02 122.73 49.09 122.29 49.09Z" fill="#0B0B0B"/>
<defs>
<filter id="filter0_b_1_2580" x="-6" y="-6" width="172" height="78" filterUnits="userSpaceOnUse" color-interpolation-filters="sRGB">
<feFlood flood-opacity="0" result="BackgroundImageFix"/>
<feGaussianBlur in="BackgroundImageFix" stdDeviation="3"/>
<feComposite in2="SourceAlpha" operator="in" result="effect1_backgroundBlur_1_2580"/>
<feBlend mode="normal" in="SourceGraphic" in2="effect1_backgroundBlur_1_2580" result="shape"/>
</filter>
<filter id="filter1_b_1_2580" x="14" y="14" width="39" height="39" filterUnits="userSpaceOnUse" color-interpolation-filters="sRGB">
<feFlood flood-opacity="0" result="BackgroundImageFix"/>
<feGaussianBlur in="BackgroundImageFix" stdDeviation="3"/>
<feComposite in2="SourceAlpha" operator="in" result="effect1_backgroundBlur_1_2580"/>
<feBlend mode="normal" in="SourceGraphic" in2="effect1_backgroundBlur_1_2580" result="shape"/>
</filter>
<filter id="filter2_b_1_2580" x="22" y="22" width="23" height="15" filterUnits="userSpaceOnUse" color-interpolation-filters="sRGB">
<feFlood flood-opacity="0" result="BackgroundImageFix"/>
<feGaussianBlur in="BackgroundImageFix" stdDeviation="3"/>
<feComposite in2="SourceAlpha" operator="in" result="effect1_backgroundBlur_1_2580"/>
<feBlend mode="normal" in="SourceGraphic" in2="effect1_backgroundBlur_1_2580" result="shape"/>
</filter>
<filter id="filter3_b_1_2580" x="22" y="30" width="23" height="15" filterUnits="userSpaceOnUse" color-interpolation-filters="sRGB">
<feFlood flood-opacity="0" result="BackgroundImageFix"/>
<feGaussianBlur in="BackgroundImageFix" stdDeviation="3"/>
<feComposite in2="SourceAlpha" operator="in" result="effect1_backgroundBlur_1_2580"/>
<feBlend mode="normal" in="SourceGraphic" in2="effect1_backgroundBlur_1_2580" result="shape"/>
</filter>
<filter id="filter4_b_1_2580" x="23" y="26" width="23" height="15" filterUnits="userSpaceOnUse" color-interpolation-filters="sRGB">
<feFlood flood-opacity="0" result="BackgroundImageFix"/>
<feGaussianBlur in="BackgroundImageFix" stdDeviation="3"/>
<feComposite in2="SourceAlpha" operator="in" result="effect1_backgroundBlur_1_2580"/>
<feBlend mode="normal" in="SourceGraphic" in2="effect1_backgroundBlur_1_2580" result="shape"/>
</filter>
</defs>
</svg>
