<svg width="160" height="66" viewBox="0 0 160 66" fill="none" xmlns="http://www.w3.org/2000/svg">
<g filter="url(#filter0_b_1_2591)">
<rect width="160" height="66" rx="20" fill="white" fill-opacity="0.8"/>
</g>
<g filter="url(#filter1_b_1_2591)">
<rect x="20" y="20" width="27" height="27" rx="6" fill="#0B0B0B"/>
</g>
<circle cx="34" cy="29" r="3" fill="#EB225F"/>
<path d="M34 33C30.6863 33 28 35.6863 28 39H40C40 35.6863 37.3137 33 34 33Z" fill="#EB225F"/>
<path d="M69.304 19.768V21.96H64.728V24.328H68.152V26.456H64.728V31H61.992V19.768H69.304ZM70.198 26.52C70.198 25.6027 70.3687 24.7973 70.71 24.104C71.062 23.4107 71.5367 22.8773 72.134 22.504C72.7313 22.1307 73.398 21.944 74.134 21.944C74.7633 21.944 75.3127 22.072 75.782 22.328C76.262 22.584 76.63 22.92 76.886 23.336V22.072H79.622V31H76.886V29.736C76.6193 30.152 76.246 30.488 75.766 30.744C75.2967 31 74.7473 31.128 74.118 31.128C73.3927 31.128 72.7313 30.9413 72.134 30.568C71.5367 30.184 71.062 29.6453 70.71 28.952C70.3687 28.248 70.198 27.4373 70.198 26.52ZM76.886 26.536C76.886 25.8533 76.694 25.3147 76.31 24.92C75.9367 24.5253 75.478 24.328 74.934 24.328C74.39 24.328 73.926 24.5253 73.542 24.92C73.1687 25.304 72.982 25.8373 72.982 26.52C72.982 27.2027 73.1687 27.7467 73.542 28.152C73.926 28.5467 74.39 28.744 74.934 28.744C75.478 28.744 75.9367 28.5467 76.31 28.152C76.694 27.7573 76.886 27.2187 76.886 26.536ZM85.2334 31.128C84.4547 31.128 83.7614 30.9947 83.1534 30.728C82.5454 30.4613 82.0654 30.0987 81.7134 29.64C81.3614 29.1707 81.164 28.648 81.1214 28.072H83.8254C83.8574 28.3813 84.0014 28.632 84.2574 28.824C84.5134 29.016 84.828 29.112 85.2014 29.112C85.5427 29.112 85.804 29.048 85.9854 28.92C86.1774 28.7813 86.2734 28.6053 86.2734 28.392C86.2734 28.136 86.14 27.9493 85.8734 27.832C85.6067 27.704 85.1747 27.5653 84.5774 27.416C83.9374 27.2667 83.404 27.112 82.9774 26.952C82.5507 26.7813 82.1827 26.52 81.8734 26.168C81.564 25.8053 81.4094 25.32 81.4094 24.712C81.4094 24.2 81.548 23.736 81.8254 23.32C82.1134 22.8933 82.5294 22.5573 83.0734 22.312C83.628 22.0667 84.284 21.944 85.0414 21.944C86.1614 21.944 87.0414 22.2213 87.6814 22.776C88.332 23.3307 88.7054 24.0667 88.8014 24.984H86.2734C86.2307 24.6747 86.092 24.4293 85.8574 24.248C85.6334 24.0667 85.3347 23.976 84.9614 23.976C84.6414 23.976 84.396 24.04 84.2254 24.168C84.0547 24.2853 83.9694 24.4507 83.9694 24.664C83.9694 24.92 84.1027 25.112 84.3694 25.24C84.6467 25.368 85.0734 25.496 85.6494 25.624C86.3107 25.7947 86.8494 25.9653 87.2654 26.136C87.6814 26.296 88.044 26.5627 88.3534 26.936C88.6734 27.2987 88.8387 27.7893 88.8494 28.408C88.8494 28.9307 88.7 29.4 88.4014 29.816C88.1134 30.2213 87.692 30.5413 87.1374 30.776C86.5934 31.0107 85.9587 31.128 85.2334 31.128ZM96.0113 21.976C97.0353 21.976 97.8566 22.3173 98.4753 23C99.0939 23.672 99.4033 24.6 99.4033 25.784V31H96.6833V26.152C96.6833 25.5547 96.5286 25.0907 96.2193 24.76C95.9099 24.4293 95.4939 24.264 94.9713 24.264C94.4486 24.264 94.0326 24.4293 93.7233 24.76C93.4139 25.0907 93.2593 25.5547 93.2593 26.152V31H90.5233V19.16H93.2593V23.272C93.5366 22.8773 93.9153 22.5627 94.3953 22.328C94.8753 22.0933 95.4139 21.976 96.0113 21.976ZM102.681 21.144C102.201 21.144 101.806 21.0053 101.497 20.728C101.198 20.44 101.049 20.088 101.049 19.672C101.049 19.2453 101.198 18.8933 101.497 18.616C101.806 18.328 102.201 18.184 102.681 18.184C103.15 18.184 103.534 18.328 103.833 18.616C104.142 18.8933 104.297 19.2453 104.297 19.672C104.297 20.088 104.142 20.44 103.833 20.728C103.534 21.0053 103.15 21.144 102.681 21.144ZM104.041 22.072V31H101.305V22.072H104.041ZM110.087 31.128C109.213 31.128 108.423 30.9413 107.719 30.568C107.026 30.1947 106.477 29.6613 106.071 28.968C105.677 28.2747 105.479 27.464 105.479 26.536C105.479 25.6187 105.682 24.8133 106.087 24.12C106.493 23.416 107.047 22.8773 107.751 22.504C108.455 22.1307 109.245 21.944 110.119 21.944C110.994 21.944 111.783 22.1307 112.487 22.504C113.191 22.8773 113.746 23.416 114.151 24.12C114.557 24.8133 114.759 25.6187 114.759 26.536C114.759 27.4533 114.551 28.264 114.135 28.968C113.73 29.6613 113.17 30.1947 112.455 30.568C111.751 30.9413 110.962 31.128 110.087 31.128ZM110.087 28.76C110.61 28.76 111.053 28.568 111.415 28.184C111.789 27.8 111.975 27.2507 111.975 26.536C111.975 25.8213 111.794 25.272 111.431 24.888C111.079 24.504 110.642 24.312 110.119 24.312C109.586 24.312 109.143 24.504 108.791 24.888C108.439 25.2613 108.263 25.8107 108.263 26.536C108.263 27.2507 108.434 27.8 108.775 28.184C109.127 28.568 109.565 28.76 110.087 28.76ZM121.651 21.976C122.696 21.976 123.528 22.3173 124.147 23C124.776 23.672 125.091 24.6 125.091 25.784V31H122.371V26.152C122.371 25.5547 122.216 25.0907 121.907 24.76C121.597 24.4293 121.181 24.264 120.659 24.264C120.136 24.264 119.72 24.4293 119.411 24.76C119.101 25.0907 118.947 25.5547 118.947 26.152V31H116.211V22.072H118.947V23.256C119.224 22.8613 119.597 22.552 120.067 22.328C120.536 22.0933 121.064 21.976 121.651 21.976Z" fill="#0B0B0B"/>
<path opacity="0.5" d="M68.48 42.02V49H67.08V46.03H64.09V49H62.69V42.02H64.09V44.89H67.08V42.02H68.48ZM72.318 49.09C71.7846 49.09 71.3046 48.9733 70.878 48.74C70.4513 48.5 70.1146 48.1633 69.868 47.73C69.628 47.2967 69.508 46.7967 69.508 46.23C69.508 45.6633 69.6313 45.1633 69.878 44.73C70.1313 44.2967 70.4746 43.9633 70.908 43.73C71.3413 43.49 71.8246 43.37 72.358 43.37C72.8913 43.37 73.3746 43.49 73.808 43.73C74.2413 43.9633 74.5813 44.2967 74.828 44.73C75.0813 45.1633 75.208 45.6633 75.208 46.23C75.208 46.7967 75.078 47.2967 74.818 47.73C74.5646 48.1633 74.218 48.5 73.778 48.74C73.3446 48.9733 72.858 49.09 72.318 49.09ZM72.318 47.87C72.5713 47.87 72.808 47.81 73.028 47.69C73.2546 47.5633 73.4346 47.3767 73.568 47.13C73.7013 46.8833 73.768 46.5833 73.768 46.23C73.768 45.7033 73.628 45.3 73.348 45.02C73.0746 44.7333 72.738 44.59 72.338 44.59C71.938 44.59 71.6013 44.7333 71.328 45.02C71.0613 45.3 70.928 45.7033 70.928 46.23C70.928 46.7567 71.058 47.1633 71.318 47.45C71.5846 47.73 71.918 47.87 72.318 47.87ZM77.6349 44.27C77.8149 44.0033 78.0616 43.7867 78.3749 43.62C78.6949 43.4533 79.0583 43.37 79.4649 43.37C79.9383 43.37 80.3649 43.4867 80.7449 43.72C81.1316 43.9533 81.4349 44.2867 81.6549 44.72C81.8816 45.1467 81.9949 45.6433 81.9949 46.21C81.9949 46.7767 81.8816 47.28 81.6549 47.72C81.4349 48.1533 81.1316 48.49 80.7449 48.73C80.3649 48.97 79.9383 49.09 79.4649 49.09C79.0516 49.09 78.6883 49.01 78.3749 48.85C78.0683 48.6833 77.8216 48.47 77.6349 48.21V49H76.2349V41.6H77.6349V44.27ZM80.5649 46.21C80.5649 45.8767 80.4949 45.59 80.3549 45.35C80.2216 45.1033 80.0416 44.9167 79.8149 44.79C79.5949 44.6633 79.3549 44.6 79.0949 44.6C78.8416 44.6 78.6016 44.6667 78.3749 44.8C78.1549 44.9267 77.9749 45.1133 77.8349 45.36C77.7016 45.6067 77.6349 45.8967 77.6349 46.23C77.6349 46.5633 77.7016 46.8533 77.8349 47.1C77.9749 47.3467 78.1549 47.5367 78.3749 47.67C78.6016 47.7967 78.8416 47.86 79.0949 47.86C79.3549 47.86 79.5949 47.7933 79.8149 47.66C80.0416 47.5267 80.2216 47.3367 80.3549 47.09C80.4949 46.8433 80.5649 46.55 80.5649 46.21ZM84.4123 44.27C84.5923 44.0033 84.8389 43.7867 85.1523 43.62C85.4723 43.4533 85.8356 43.37 86.2423 43.37C86.7156 43.37 87.1423 43.4867 87.5223 43.72C87.9089 43.9533 88.2123 44.2867 88.4323 44.72C88.6589 45.1467 88.7723 45.6433 88.7723 46.21C88.7723 46.7767 88.6589 47.28 88.4323 47.72C88.2123 48.1533 87.9089 48.49 87.5223 48.73C87.1423 48.97 86.7156 49.09 86.2423 49.09C85.8289 49.09 85.4656 49.01 85.1523 48.85C84.8456 48.6833 84.5989 48.47 84.4123 48.21V49H83.0123V41.6H84.4123V44.27ZM87.3423 46.21C87.3423 45.8767 87.2723 45.59 87.1323 45.35C86.9989 45.1033 86.8189 44.9167 86.5923 44.79C86.3723 44.6633 86.1323 44.6 85.8723 44.6C85.6189 44.6 85.3789 44.6667 85.1523 44.8C84.9323 44.9267 84.7523 45.1133 84.6123 45.36C84.4789 45.6067 84.4123 45.8967 84.4123 46.23C84.4123 46.5633 84.4789 46.8533 84.6123 47.1C84.7523 47.3467 84.9323 47.5367 85.1523 47.67C85.3789 47.7967 85.6189 47.86 85.8723 47.86C86.1323 47.86 86.3723 47.7933 86.5923 47.66C86.8189 47.5267 86.9989 47.3367 87.1323 47.09C87.2723 46.8433 87.3423 46.55 87.3423 46.21ZM95.0896 43.46L91.6596 51.62H90.1696L91.3696 48.86L89.1496 43.46H90.7196L92.1496 47.33L93.5996 43.46H95.0896Z" fill="#0B0B0B"/>
<defs>
<filter id="filter0_b_1_2591" x="-6" y="-6" width="172" height="78" filterUnits="userSpaceOnUse" color-interpolation-filters="sRGB">
<feFlood flood-opacity="0" result="BackgroundImageFix"/>
<feGaussianBlur in="BackgroundImageFix" stdDeviation="3"/>
<feComposite in2="SourceAlpha" operator="in" result="effect1_backgroundBlur_1_2591"/>
<feBlend mode="normal" in="SourceGraphic" in2="effect1_backgroundBlur_1_2591" result="shape"/>
</filter>
<filter id="filter1_b_1_2591" x="14" y="14" width="39" height="39" filterUnits="userSpaceOnUse" color-interpolation-filters="sRGB">
<feFlood flood-opacity="0" result="BackgroundImageFix"/>
<feGaussianBlur in="BackgroundImageFix" stdDeviation="3"/>
<feComposite in2="SourceAlpha" operator="in" result="effect1_backgroundBlur_1_2591"/>
<feBlend mode="normal" in="SourceGraphic" in2="effect1_backgroundBlur_1_2591" result="shape"/>
</filter>
</defs>
</svg>
